<?xml version="1.0" encoding="utf-8" ?>
<svg xmlns="http://www.w3.org/2000/svg" xmlns:xlink="http://www.w3.org/1999/xlink" width="1024" height="1024">
	<path fill="#FEFEFE" d="M0 0L1024 0L1024 1024L0 1024L0 0Z"/>
	<path fill="#010101" d="M793.483 483.148C797.636 482.747 801.929 483.648 805.457 485.913C809.874 488.749 812.661 493.411 813.576 498.532C814.5 503.698 813.39 509.183 810.259 513.427C806.748 518.187 802.227 519.991 796.623 520.921C792.373 520.901 788.766 520.344 785.138 517.978C780.673 515.066 777.608 510.17 776.63 504.958Q776.462 504.064 776.383 503.158Q776.304 502.251 776.316 501.342Q776.327 500.432 776.429 499.528Q776.531 498.624 776.722 497.735Q776.912 496.845 777.191 495.979Q777.469 495.113 777.832 494.279Q778.194 493.445 778.638 492.65Q779.082 491.856 779.602 491.11C783.058 486.143 787.708 484.055 793.483 483.148Z"/>
	<path fill="#FEFEFE" d="M792.907 486.622C796.205 486.454 799.025 486.433 802.107 487.88C805.928 489.674 808.64 492.986 809.908 496.987C811.201 501.068 811.027 505.553 808.98 509.354C806.564 513.842 802.609 516.166 797.872 517.59C793.97 517.659 790.966 517.468 787.492 515.39C783.829 513.2 781.012 509.422 780.021 505.264Q779.834 504.482 779.727 503.684Q779.621 502.887 779.597 502.083Q779.573 501.279 779.631 500.477Q779.689 499.675 779.829 498.883Q779.969 498.091 780.189 497.317Q780.409 496.543 780.707 495.796Q781.005 495.049 781.378 494.336Q781.751 493.624 782.195 492.953C784.852 488.973 788.408 487.519 792.907 486.622Z"/>
	<path fill="#F47A3E" d="M851.012 350.614C857.417 350.195 863.101 350.897 868.706 354.247Q869.258 354.581 869.793 354.942Q870.328 355.304 870.844 355.691Q871.361 356.078 871.858 356.49Q872.354 356.902 872.83 357.338Q873.306 357.773 873.76 358.232Q874.214 358.691 874.645 359.172Q875.075 359.652 875.482 360.154Q875.888 360.655 876.27 361.176Q876.651 361.696 877.006 362.235Q877.362 362.774 877.69 363.33Q878.018 363.885 878.319 364.457Q878.619 365.028 878.891 365.613Q879.163 366.198 879.406 366.796Q879.649 367.394 879.862 368.004Q880.075 368.613 880.258 369.232Q880.441 369.851 880.593 370.478C882.327 377.636 880.994 385.816 877.019 392.029C872.745 398.708 866.904 401.793 859.399 403.508C852.796 404.521 846.578 403.45 840.808 399.98Q840.252 399.65 839.713 399.293Q839.174 398.936 838.653 398.553Q838.133 398.169 837.632 397.76Q837.132 397.351 836.652 396.917Q836.173 396.483 835.716 396.026Q835.259 395.569 834.825 395.089Q834.391 394.61 833.982 394.109Q833.573 393.608 833.19 393.088Q832.806 392.567 832.449 392.028Q832.093 391.489 831.763 390.933Q831.434 390.376 831.133 389.804Q830.832 389.232 830.56 388.645Q830.288 388.059 830.045 387.459Q829.803 386.86 829.591 386.249Q829.379 385.638 829.198 385.018Q829.017 384.397 828.867 383.768Q828.704 383.094 828.576 382.412Q828.447 381.731 828.353 381.044Q828.259 380.356 828.2 379.665Q828.141 378.974 828.117 378.281Q828.092 377.588 828.103 376.895Q828.114 376.201 828.16 375.509Q828.205 374.817 828.286 374.128Q828.367 373.439 828.482 372.755Q828.597 372.071 828.747 371.394Q828.896 370.717 829.08 370.048Q829.264 369.379 829.481 368.721Q829.698 368.062 829.948 367.415Q830.198 366.768 830.48 366.135Q830.763 365.501 831.077 364.883Q831.391 364.264 831.736 363.662Q832.08 363.061 832.455 362.477C836.936 355.465 843.257 352.426 851.012 350.614Z"/>
	<path fill="#FEFEFE" d="M851.106 353.601C856.522 353.077 861.609 353.515 866.434 356.295Q866.959 356.594 867.469 356.919Q867.978 357.245 868.471 357.595Q868.963 357.946 869.438 358.321Q869.912 358.696 870.366 359.095Q870.821 359.493 871.255 359.914Q871.688 360.335 872.1 360.778Q872.512 361.22 872.901 361.683Q873.291 362.146 873.656 362.627Q874.021 363.109 874.361 363.609Q874.702 364.108 875.016 364.624Q875.331 365.141 875.619 365.672Q875.907 366.203 876.168 366.749Q876.429 367.294 876.662 367.852Q876.896 368.41 877.1 368.979Q877.305 369.547 877.48 370.126Q877.656 370.704 877.802 371.291Q877.946 371.877 878.061 372.469Q878.176 373.061 878.262 373.659Q878.348 374.256 878.405 374.857Q878.461 375.457 878.488 376.06Q878.516 376.663 878.513 377.266Q878.511 377.87 878.479 378.472Q878.447 379.074 878.385 379.675Q878.324 380.275 878.233 380.871Q878.142 381.468 878.022 382.059Q877.903 382.651 877.754 383.235Q877.605 383.82 877.428 384.397Q877.251 384.974 877.046 385.541Q876.841 386.108 876.608 386.665Q876.375 387.222 876.115 387.766Q875.856 388.311 875.57 388.842Q875.284 389.373 874.972 389.89C871.175 396.101 865.42 399.19 858.56 400.874C852.987 401.412 847.506 400.497 842.612 397.688Q842.128 397.411 841.658 397.11Q841.189 396.809 840.734 396.485Q840.28 396.161 839.843 395.815Q839.406 395.469 838.986 395.102Q838.567 394.734 838.166 394.346Q837.765 393.958 837.384 393.55Q837.004 393.143 836.644 392.717Q836.284 392.291 835.945 391.847Q835.607 391.404 835.291 390.944Q834.975 390.484 834.683 390.009Q834.391 389.534 834.122 389.045Q833.854 388.556 833.61 388.055Q833.367 387.553 833.148 387.039Q832.93 386.526 832.738 386.003Q832.545 385.479 832.379 384.947Q832.213 384.414 832.074 383.874C830.356 377.462 831.253 370.206 834.689 364.503C838.474 358.22 844.183 355.197 851.106 353.601Z"/>
	<path fill="#010101" d="M769.569 622.02C766.624 622.052 762.029 622.499 759.614 620.46C759.374 620.257 759.17 620.015 758.947 619.792C760.57 618.416 762.544 618.378 764.59 618.267C771.908 617.872 779.407 618.227 786.742 618.283Q805.3 618.466 823.859 618.397L857.232 618.339C863.083 618.322 869.329 617.893 875.138 618.409C876.808 618.557 878.218 618.824 879.773 619.449L880.363 620.18C879.707 621.271 878.525 621.817 877.314 622.119C875.194 622.647 872.64 622.379 870.46 622.334C870.486 632.988 870.277 643.715 870.574 654.361C874.256 654.362 881.632 653.328 884.674 655.426C885.178 656.402 885.13 657.008 885.061 658.089C857.077 658.257 828.946 657.412 800.986 658.369C787.03 658.122 772.793 659.283 758.888 658.2C758.635 656.706 758.428 656.157 758.951 654.705C761.826 652.76 766.118 654.076 769.438 654.036Q769.803 638.029 769.569 622.02Z"/>
	<path fill="#FEFEFE" d="M772.94 649.389C791.905 648.727 811.044 649.275 830.03 649.322C841.939 649.352 854.579 648.532 866.373 649.665C867.265 650.925 866.982 652.577 866.956 654.055C850.204 654.757 833.07 654.04 816.288 654.075C802.348 654.103 787.435 655.055 773.596 653.929C772.735 652.495 772.984 651.043 772.94 649.389Z"/>
	<path fill="#FEFEFE" d="M775.118 622.24L844.54 622.408C848.233 622.409 862.47 621.628 864.94 622.409C866.408 622.873 866.534 623.228 867.228 624.49C867.242 625.443 867.266 625.968 866.796 626.834C866.341 627.672 865.985 627.508 865.125 627.718C856.918 627.81 777.44 628.473 775.151 627.616C774.035 627.198 773.161 626.606 772.845 625.373C772.585 624.361 772.794 623.349 773.304 622.472L775.118 622.24Z"/>
	<path fill="#FEFEFE" d="M773.387 630.795L866.982 630.837L866.98 646.403L773.33 646.366L773.387 630.795Z"/>
	<defs>
		<linearGradient id="gradient_0" gradientUnits="userSpaceOnUse" x1="817.73871" y1="653.61365" x2="813.10608" y2="699.42126">
			<stop offset="0" stop-color="#F7D4AB"/>
			<stop offset="1" stop-color="#FDF7EC"/>
		</linearGradient>
	</defs>
	<path fill="url(#gradient_0)" d="M800.986 658.369C828.946 657.412 857.077 658.257 885.061 658.089L882.53 658.561C881.29 660.523 881.392 690.837 882.187 694.481C882.337 695.17 882.419 695.269 882.692 695.819C878.109 695.083 873.05 695.381 868.395 695.342C858.546 695.26 848.623 695.477 838.789 694.949L758.514 695.198C758.039 692.066 758.528 688.205 758.619 685.008C758.872 676.129 759.502 667.071 758.888 658.2C772.793 659.283 787.03 658.122 800.986 658.369Z"/>
	<path fill="#F47A3E" d="M800.986 658.369C828.946 657.412 857.077 658.257 885.061 658.089L882.53 658.561C881.29 660.523 881.392 690.837 882.187 694.481C882.337 695.17 882.419 695.269 882.692 695.819C878.109 695.083 873.05 695.381 868.395 695.342C858.546 695.26 848.623 695.477 838.789 694.949C848.904 693.593 862.231 694.562 872.676 694.605C872.614 692.114 872.45 689.676 872.993 687.227L873.885 686.7C875.333 683.956 874.866 668.727 874.224 665.342L873.162 664.838C872.671 662.895 872.934 660.526 872.936 658.512C848.994 658.374 824.901 659.182 800.986 658.369Z"/>
	<path fill="#010101" d="M873.162 664.838L874.224 665.342C874.866 668.727 875.333 683.956 873.885 686.7L872.993 687.227C864.341 686.009 850.61 686.893 841.49 686.874Q806.776 686.889 772.064 686.533Q771.997 675.876 772.115 665.22C796.365 664.216 820.97 665.08 845.252 665.096C854.493 665.103 863.95 665.507 873.162 664.838Z"/>
	<path fill="#FEFEFE" d="M774.82 667.861L872.505 667.939L872.476 684.007C840 684.743 807.345 683.975 774.852 683.895L774.82 667.861Z"/>
	<path fill="#8ABAE7" d="M689.329 251.71C713.235 252.289 737.216 251.988 761.129 252.014Q760.88 274.139 761.413 296.258C774.105 296.773 786.862 295.754 799.54 296.497Q799.691 320.001 799.497 343.505C786.853 344.13 774.043 343.832 761.381 343.863C760.939 357.104 761.196 370.286 761.315 383.523C761.329 385.04 761.528 386.829 760.438 387.939Q724.738 387.574 689.037 387.682C689.494 373.054 689.28 358.394 689.226 343.76C676.366 343.409 663.472 343.767 650.605 343.475C650.324 337.252 650.649 330.904 650.69 324.669Q650.738 310.38 650.539 296.093L689.261 296.103C689.714 281.326 689.162 266.499 689.329 251.71Z"/>
	<path fill="#FEFEFE" d="M691.541 343.998Q725.09 343.724 758.638 344Q758.94 364.605 758.541 385.209C736.271 386.029 713.792 385.292 691.501 385.222Q691.414 364.609 691.541 343.998Z"/>
	<path fill="#FEFEFE" d="M748.247 254.243L758.584 254.19C758.934 268.183 758.776 282.155 758.642 296.15L703.783 296.091L691.602 296.125Q691.441 275.368 691.49 254.612C710.354 254.006 729.364 254.449 748.247 254.243Z"/>
	<path fill="#FEFEFE" d="M761.932 298.75Q779.66 298.479 797.388 298.71Q797.466 320.004 797.044 341.294C785.513 341.547 773.938 341.381 762.402 341.414L726.875 341.341Q726.609 320.071 726.64 298.8Q744.286 298.914 761.932 298.75Z"/>
	<path fill="#FEFEFE" d="M652.939 298.705C676.63 297.73 700.696 298.634 724.419 298.71C724.608 306.853 724.495 315.024 724.493 323.169C724.49 328.924 725.063 335.747 723.881 341.377C700.305 341.558 676.583 341.752 653.022 341.124C652.776 326.98 652.512 312.848 652.939 298.705Z"/>
	<path fill="#010101" d="M545.669 105.2C546.107 105.155 546.545 105.105 546.984 105.077C568.251 103.729 588.864 111.612 604.707 125.623C620.456 139.55 629.185 159.62 630.431 180.442C631.689 201.463 624.542 223.43 610.448 239.211C596.97 254.302 577.953 264.414 557.605 265.594C537.618 267.094 517.698 261.646 501.978 249.047Q501.193 248.411 500.424 247.755Q499.654 247.1 498.902 246.426Q498.149 245.752 497.413 245.059Q496.677 244.367 495.958 243.656Q495.24 242.946 494.539 242.218Q493.838 241.489 493.155 240.744Q492.473 239.999 491.809 239.237Q491.145 238.476 490.5 237.698Q489.855 236.92 489.229 236.126Q488.604 235.332 487.998 234.523Q487.392 233.715 486.807 232.891Q486.221 232.067 485.656 231.23Q485.091 230.392 484.547 229.54Q484.003 228.689 483.48 227.824Q482.957 226.959 482.455 226.082Q481.954 225.205 481.474 224.315Q480.994 223.426 480.537 222.525Q480.079 221.624 479.644 220.712Q479.209 219.8 478.797 218.877Q478.384 217.954 477.995 217.022Q477.605 216.09 477.239 215.148Q476.872 214.206 476.529 213.255Q476.186 212.305 475.867 211.346Q475.548 210.387 475.252 209.421Q474.956 208.455 474.685 207.481Q474.413 206.508 474.166 205.528Q473.918 204.548 473.695 203.563Q473.471 202.577 473.273 201.587Q473.074 200.596 472.899 199.6Q472.725 198.605 472.576 197.606Q472.426 196.606 472.301 195.603Q472.176 194.601 472.076 193.595Q471.881 191.631 471.782 189.66Q471.683 187.69 471.68 185.716Q471.677 183.743 471.771 181.772Q471.863 179.801 472.052 177.836Q472.241 175.872 472.525 173.919Q472.809 171.966 473.188 170.03Q473.566 168.093 474.039 166.177Q474.511 164.261 475.076 162.37Q475.641 160.48 476.297 158.619Q476.953 156.758 477.699 154.931Q478.445 153.104 479.279 151.315Q480.113 149.527 481.033 147.781Q481.953 146.035 482.957 144.336Q483.961 142.637 485.046 140.989Q486.131 139.341 487.295 137.747Q488.459 136.154 489.699 134.619C503.81 117.317 523.584 107.386 545.669 105.2Z"/>
	<path fill="#FEFEFE" d="M548.69 108.22C569.411 107.732 588.048 114.737 603.305 128.791C618.475 142.765 626.773 162.521 627.489 183.015C628.203 203.472 619.964 224.483 605.986 239.362C591.953 254.299 573.732 261.919 553.389 262.636C534.608 262.991 516.568 257.393 502.212 245.067Q500.752 243.801 499.354 242.465Q497.957 241.13 496.626 239.728Q495.296 238.326 494.035 236.861Q492.774 235.396 491.586 233.872Q490.397 232.348 489.284 230.767Q488.172 229.187 487.137 227.554Q486.102 225.922 485.148 224.241Q484.194 222.56 483.323 220.835Q482.451 219.109 481.665 217.344Q480.878 215.578 480.179 213.776Q479.479 211.974 478.868 210.141Q478.256 208.307 477.735 206.446Q477.213 204.585 476.783 202.701Q476.353 200.816 476.014 198.913Q475.676 197.01 475.43 195.093Q475.185 193.176 475.033 191.249C473.481 170.041 480.733 149.887 494.719 133.947C508.704 118.008 527.679 109.526 548.69 108.22Z"/>
	<path fill="#010101" d="M610.289 181.702C610.755 181.772 611.583 181.871 612 182.057C613.186 182.587 613.355 183.343 613.753 184.446C613.592 186.019 613.248 186.747 612.422 188.097C611.957 187.982 611.169 187.806 610.752 187.611C609.543 187.044 609.345 186.447 608.827 185.314C608.981 183.673 609.338 183.05 610.289 181.702Z"/>
	<path fill="#010101" d="M550.433 242.965C550.85 243.072 551.388 243.189 551.765 243.385C553.002 244.027 553.197 244.496 553.684 245.705C553.265 247.385 552.972 247.658 551.831 248.879C551.31 248.741 550.31 248.559 549.824 248.253C548.678 247.532 548.568 247.033 548.215 245.825C548.837 244.248 549.172 244.01 550.433 242.965Z"/>
	<path fill="#010101" d="M488.939 182.141C489.338 182.203 489.935 182.275 490.297 182.435C491.505 182.969 491.635 183.572 492.08 184.704C491.873 186.473 491.404 187.383 490.416 188.851C490.204 188.75 489.987 188.657 489.779 188.547C488.34 187.786 487.573 187.102 487.105 185.53C487.245 183.925 487.915 183.277 488.939 182.141Z"/>
	<path fill="#010101" d="M548.599 120.915C549.284 120.889 550.083 120.811 550.772 120.915C552.145 121.123 552.62 121.616 553.432 122.669C553.558 124.315 553.255 125.16 552.554 126.64C552.404 126.632 552.253 126.63 552.104 126.615C550.562 126.462 549.675 126.183 548.638 125.012C548.132 123.432 548.254 122.522 548.599 120.915Z"/>
	<path fill="#010101" d="M569.207 138.776C570.016 139.141 570.785 139.589 571.564 140.015C572.103 142.276 555.911 183.575 553.53 189.463C553.432 189.46 553.332 189.472 553.236 189.454C551.99 189.224 551.761 189.115 550.966 188.195C550.891 184.938 566.772 144.845 569.207 138.776Z"/>
	<path fill="#8ABAE7" d="M163.632 607.638L163.361 607.238C154.305 594.101 142.177 580.019 131.724 567.866C124.805 559.821 116.275 552.489 111.71 542.749Q111.019 541.244 110.446 539.691Q109.873 538.137 109.421 536.544Q108.97 534.951 108.643 533.327Q108.315 531.704 108.114 530.06Q107.913 528.417 107.839 526.762Q107.766 525.108 107.82 523.453Q107.874 521.798 108.055 520.152Q108.237 518.506 108.545 516.879C111.334 501.292 121.15 491.965 130.747 480.306C134.914 475.243 138.842 469.446 142.154 463.784C146.39 456.543 149.939 448.132 152.127 440.034C156.658 423.264 157.15 400.208 172.808 389.472Q173.347 389.104 173.903 388.764Q174.459 388.424 175.031 388.111Q175.603 387.798 176.19 387.514Q176.777 387.23 177.377 386.975Q177.977 386.721 178.589 386.496Q179.201 386.271 179.823 386.076Q180.446 385.882 181.077 385.719Q181.708 385.555 182.347 385.423Q182.985 385.291 183.629 385.19Q184.274 385.09 184.922 385.021Q185.57 384.953 186.221 384.916Q186.872 384.879 187.524 384.875Q188.176 384.871 188.828 384.898Q189.479 384.926 190.128 384.986Q190.778 385.046 191.423 385.138Q192.069 385.229 192.709 385.353C200.171 386.753 206.015 391.516 210.109 397.718C220.495 413.449 218.817 434.822 226.013 452.115C229.925 461.516 235.775 470.419 242.082 478.374C246.302 483.697 251.085 488.659 255.03 494.181C263.132 505.525 266.583 519.854 263.67 533.578C260.121 550.296 246.575 560.961 235.845 573.214C227.594 582.636 216.399 596.468 210.641 607.361C215.212 607.421 220.86 606.831 225.277 607.888L232.538 608.058C228.054 638 221.466 667.555 216.731 697.446L212.942 697.289C196.073 697.515 179.112 697.908 162.248 697.533C160.981 697.592 160.092 697.622 158.859 697.252L158.363 696.091C154.21 677.169 150.898 657.926 147.25 638.895C145.261 628.516 142.552 618.095 141.021 607.669C148.553 607.556 156.099 607.644 163.632 607.638Z"/>
	<path fill="#010101" d="M185.416 577.222C186.067 545.453 185.574 513.592 185.531 481.813C185.522 474.873 184.489 450.596 185.982 445.732L187.233 445.2C187.921 445.483 188.195 445.385 188.467 446.162C189.687 449.648 188.908 540.39 188.945 551.393C191.8 545.514 205.073 511.364 207.986 509.566C208.89 510.548 208.998 511.037 208.884 512.386C208.532 516.555 205.488 521.857 203.83 525.734C199.655 535.502 191.962 551.665 189.558 561.518C187.676 569.233 188.826 597.843 188.849 607.775C200.934 607.849 213.216 608.395 225.277 607.888L232.538 608.058C228.054 638 221.466 667.555 216.731 697.446L212.942 697.289C215.665 684.993 217.705 672.511 219.967 660.122C222.934 643.869 226.021 627.662 228.776 611.369C218.744 610.775 208.56 611.097 198.504 611.087L145.289 611.074C146.952 624.489 150.427 637.991 153.038 651.268C156.068 666.672 158.435 682.297 162.248 697.533C160.981 697.592 160.092 697.622 158.859 697.252L158.363 696.091C154.21 677.169 150.898 657.926 147.25 638.895C145.261 628.516 142.552 618.095 141.021 607.669C148.553 607.556 156.099 607.644 163.632 607.638Q174.527 607.891 185.424 607.796C185.51 600.827 186.564 592.015 184.921 585.306C182.831 576.77 159.075 531.081 159.788 527.735L160.798 527.065C163.224 527.882 164.231 530.153 165.296 532.359C172.416 547.093 178.464 562.393 185.416 577.222Z"/>
	<path fill="#FEFEFE" d="M145.289 611.074L198.504 611.087C208.56 611.097 218.744 610.775 228.776 611.369C226.021 627.662 222.934 643.869 219.967 660.122C217.705 672.511 215.665 684.993 212.942 697.289C196.073 697.515 179.112 697.908 162.248 697.533C158.435 682.297 156.068 666.672 153.038 651.268C150.427 637.991 146.952 624.489 145.289 611.074Z"/>
	<path fill="#4666C8" d="M838.789 694.949C848.623 695.477 858.546 695.26 868.395 695.342C873.05 695.381 878.109 695.083 882.692 695.819C882.805 696.108 883.211 697.39 883.392 697.601C884.812 699.255 936.66 697.043 944.447 698.661C947.948 699.389 951.329 700.876 954.045 703.231C957.917 706.589 959.506 711.168 959.727 716.186C959.967 721.629 958.665 726.46 954.748 730.389C952.365 732.779 949.235 734.674 945.858 735.164C935.827 736.621 918.381 735.245 907.567 735.17Q867.945 734.926 828.326 735.45L861.051 867.294L874.478 920.411C876.942 930.039 879.69 939.589 881.816 949.3C896.825 949.666 911.912 949.391 926.928 949.392C932.286 949.392 937.941 948.958 943.268 949.323C944.563 949.412 945.079 949.58 945.949 950.525L945.782 951.651C945.409 951.92 945.273 952.06 944.769 952.183C941.501 952.978 936.493 952.282 933.007 952.27L902.314 952.163L779.657 952.078L281.536 951.975C257.618 951.978 71.1414 952.776 68.6143 951.512L68.4498 950.24C71.636 948.341 131.95 949.112 139.69 949.098C154.203 895.837 169.271 842.806 182.87 789.288C187.497 771.082 193.234 752.953 196.888 734.531L129.987 734.501C119.069 734.507 107.762 735.169 96.8991 734.355C94.0731 734.143 91.2772 733.715 88.7591 732.343C84.671 730.115 81.1801 726.045 79.9465 721.519C78.6113 716.62 79.3394 709.825 82.0643 705.555C84.3497 701.973 88.1321 699.584 92.1667 698.424C99.324 696.368 135.373 697.498 145.028 697.495C149.08 697.494 153.686 698.011 157.643 697.203L158.363 696.091L158.859 697.252C160.092 697.622 160.981 697.592 162.248 697.533C179.112 697.908 196.073 697.515 212.942 697.289L216.731 697.446C222.822 698.041 229.21 697.707 235.336 697.688L267.521 697.564L309.001 697.396C317.114 697.341 325.373 697.515 333.462 696.892C342.377 700.764 370.84 698.756 382.083 698.963L382.205 728.886C382.256 734.697 382.712 740.738 382.083 746.517C381.708 742.591 381.939 738.482 381.934 734.533C339.663 734.106 297.329 734.385 255.055 734.585Q227.822 842.092 199.001 949.184C213.773 949.512 228.627 949.169 243.406 949.148L341.913 949.133L824.332 949.177C823.102 941.037 820.754 932.883 818.814 924.88Q812.248 898.41 805.286 872.042L770.674 735.512L622.001 735.505L621.939 698.686C631.736 698.76 642.236 699.676 651.852 697.636C659.493 698.927 668.466 698.017 676.248 697.991L731.489 697.83C740.139 697.803 749.9 696.952 758.449 697.991L758.514 695.198L838.789 694.949Z"/>
	<path fill="#010101" d="M838.789 694.949C848.623 695.477 858.546 695.26 868.395 695.342C873.05 695.381 878.109 695.083 882.692 695.819L882.474 697.407C878.577 699.756 854.049 697.581 847.34 698.507C837.124 698.106 826.765 698.448 816.531 698.461L759.418 698.566L758.449 697.991L758.514 695.198L838.789 694.949Z"/>
	<path fill="#FEFEFE" d="M774.177 735.539L825.19 735.411C827.186 741.954 828.45 748.845 830.112 755.491L844.348 813.664L864.439 892.589C869.231 911.402 874.282 930.153 878.216 949.17L827.619 949.104C824.524 938.698 822.667 927.634 820.166 917.043C816.621 902.038 812.454 887.11 808.606 872.176L787.05 787.003C782.719 769.899 777.873 752.78 774.177 735.539Z"/>
	<path fill="#FEFEFE" d="M199.83 734.543L252.003 734.554C246.46 758.746 239.604 782.703 233.406 806.74Q219.757 860.688 205.276 914.418Q202.235 925.451 199.467 936.555C198.468 940.466 197.776 945.597 195.902 949.141L142.824 949.104C144.707 941.36 147.313 933.735 149.495 926.065L161.731 881.782Q174.472 833.968 186.724 786.027C191.113 768.962 196.567 751.846 199.83 734.543Z"/>
	<path fill="#8ABAE7" d="M97.2731 125.151C98.7125 124.923 100.238 124.934 101.693 124.867C120.714 123.987 140.113 124.823 159.174 124.85L268.997 124.807L340.222 124.876C353.218 124.834 369.314 123.741 381.933 125.288C388.842 126.136 394.912 128.788 400.012 133.545C406.786 139.862 410.865 149.272 411.103 158.502C411.407 170.356 411.079 182.292 411.049 194.152L411.025 258.108L411.028 293.097C411.029 300.719 411.525 308.686 410.285 316.225C409.17 323.005 406.225 329.435 401.48 334.444C395.161 341.113 387.658 343.392 378.676 343.631L182.963 343.881L126.087 343.865C115.169 343.858 103.803 344.472 92.9417 343.305C88.2542 342.802 83.5679 340.738 79.751 337.991C73.0873 333.196 67.411 325.1 66.211 316.861C64.7405 306.765 65.5202 295.819 65.5028 285.608L65.4572 230.41L65.2733 184.704C65.2261 175.601 64.6272 166.001 65.747 156.966C66.6017 150.07 68.8552 144.179 73.0625 138.604C78.9867 130.753 87.6962 126.543 97.2731 125.151Z"/>
	<path fill="#FEFEFE" d="M309.714 127.99L356.491 127.92C364.797 127.908 373.77 127.177 381.964 128.414Q383.614 128.65 385.227 129.07Q386.839 129.49 388.394 130.089Q389.95 130.688 391.428 131.458Q392.906 132.228 394.288 133.159Q394.92 133.591 395.529 134.053Q396.139 134.516 396.725 135.007Q397.312 135.499 397.873 136.018Q398.435 136.538 398.97 137.084Q399.506 137.631 400.014 138.203Q400.522 138.775 401.002 139.371Q401.482 139.967 401.932 140.586Q402.381 141.205 402.801 141.845Q403.22 142.485 403.607 143.145Q403.994 143.804 404.349 144.482Q404.704 145.16 405.025 145.855Q405.346 146.549 405.632 147.259Q405.919 147.968 406.171 148.691Q406.423 149.413 406.639 150.147Q406.855 150.881 407.035 151.625Q407.215 152.368 407.358 153.12C408.095 157.042 408.857 190.853 407.366 193.025L309.715 193.344L309.714 127.99Z"/>
	<path fill="#FEFEFE" d="M113.694 127.753Q140.922 127.452 168.151 127.705Q168.537 160.399 168.265 193.095C153.317 193.352 138.327 193.117 123.375 193.115L68.5593 193.091L68.4932 173.434C68.4911 160.712 68.1213 147.975 77.635 138.147C87.6425 127.809 100.337 127.848 113.694 127.753Z"/>
	<path fill="#FEFEFE" d="M171.39 127.861C216.456 127.378 261.572 127.939 306.642 127.976C306.584 149.715 306.755 171.467 306.456 193.203L171.345 193.121C170.809 171.426 171.132 149.564 171.39 127.861Z"/>
	<path fill="#FEFEFE" d="M339.306 196.244Q373.659 196.112 408.01 196.41L407.946 277.13C407.929 288.793 409.125 307.497 406.84 318.455C405.821 323.341 403.047 328.131 399.578 331.714C394.229 337.239 387.021 340.296 379.38 340.544L309.914 340.842C309.64 325.679 309.942 310.458 309.948 295.29L309.697 196.456L339.306 196.244Z"/>
	<path fill="#FEFEFE" d="M68.5225 196.392Q92.1063 196.258 115.69 196.405Q142.028 196.134 168.366 196.455C168.513 212.603 168.148 228.783 168.118 244.936L168.223 340.041C166.657 341.394 111.968 340.666 105.803 340.699C94.6187 340.758 85.517 339.82 77.2413 331.489C73.567 327.791 70.6493 323.062 69.5102 317.947C67.3795 308.379 68.6006 286.001 68.6171 275.147L68.5225 196.392Z"/>
	<path fill="#FEFEFE" d="M171.155 196.446L306.597 196.504C306.561 244.527 307.232 292.606 306.666 340.62L171.508 340.602C171.456 292.579 171.957 244.455 171.155 196.446Z"/>
	<path fill="#FEFEFE" d="M458.985 431.499C459.177 419.912 463.045 409.883 471.424 401.679C478.555 394.696 487.72 391 497.711 391.16C508.022 391.324 518.268 395.995 525.339 403.468C532.712 411.261 536.045 420.914 536.597 431.517L625.519 431.564C636.122 431.54 657.7 430.273 666.786 432.21Q668.011 432.481 669.214 432.841Q670.416 433.2 671.59 433.645Q672.763 434.09 673.901 434.619Q675.039 435.148 676.136 435.758Q677.233 436.368 678.283 437.055Q679.333 437.743 680.331 438.504Q681.328 439.266 682.268 440.098Q683.208 440.929 684.085 441.827Q685.015 442.781 685.87 443.803Q686.725 444.825 687.499 445.909Q688.273 446.993 688.963 448.133Q689.653 449.273 690.253 450.463Q690.854 451.652 691.362 452.883Q691.871 454.115 692.284 455.382Q692.697 456.648 693.013 457.943Q693.328 459.237 693.544 460.552C694.846 468.13 694.42 476.282 694.435 483.963L694.461 516.797C694.466 555.437 694.732 594.131 694.152 632.765C693.994 643.265 691.258 652.935 683.536 660.384C678.915 664.842 673.028 667.682 667.003 669.731C668.056 676.632 667.103 683.22 662.923 689.009C660.046 692.993 656.292 695.645 651.852 697.636C642.236 699.676 631.736 698.76 621.939 698.686L622.001 735.505L770.674 735.512L805.286 872.042Q812.248 898.41 818.814 924.88C820.754 932.883 823.102 941.037 824.332 949.177L341.913 949.133L243.406 949.148C228.627 949.169 213.773 949.512 199.001 949.184Q227.822 842.092 255.055 734.585C297.329 734.385 339.663 734.106 381.934 734.533C381.939 738.482 381.708 742.591 382.083 746.517C382.712 740.738 382.256 734.697 382.205 728.886L382.083 698.963C370.84 698.756 342.377 700.764 333.462 696.892C327.927 692.475 324.481 687.255 323.764 680.037C323.408 676.45 323.949 673.047 324.763 669.564C315.576 663.303 306.249 653.809 304.145 642.386C302.383 632.818 303.15 622.34 303.172 612.649L303.309 563.856Q302.989 528.724 303.12 493.592C303.163 483.016 302.348 471.562 303.831 461.11C304.521 456.245 306.962 451.26 309.766 447.274Q310.3 446.521 310.871 445.795Q311.441 445.069 312.047 444.371Q312.652 443.674 313.291 443.007Q313.93 442.34 314.6 441.706Q315.271 441.071 315.972 440.47Q316.673 439.868 317.402 439.302Q318.132 438.736 318.888 438.206Q319.645 437.677 320.426 437.185Q321.208 436.693 322.012 436.239Q322.817 435.786 323.642 435.373Q324.468 434.959 325.313 434.587Q326.158 434.215 327.02 433.884Q327.883 433.553 328.76 433.265Q329.637 432.977 330.528 432.733Q331.418 432.488 332.32 432.287Q333.221 432.086 334.131 431.93C344.41 430.242 362.758 431.476 374.073 431.494L458.985 431.499Z"/>
	<path fill="#010101" d="M458.985 431.499C459.177 419.912 463.045 409.883 471.424 401.679C478.555 394.696 487.72 391 497.711 391.16C508.022 391.324 518.268 395.995 525.339 403.468C532.712 411.261 536.045 420.914 536.597 431.517L625.519 431.564C636.122 431.54 657.7 430.273 666.786 432.21Q668.011 432.481 669.214 432.841Q670.416 433.2 671.59 433.645Q672.763 434.09 673.901 434.619Q675.039 435.148 676.136 435.758Q677.233 436.368 678.283 437.055Q679.333 437.743 680.331 438.504Q681.328 439.266 682.268 440.098Q683.208 440.929 684.085 441.827Q685.015 442.781 685.87 443.803Q686.725 444.825 687.499 445.909Q688.273 446.993 688.963 448.133Q689.653 449.273 690.253 450.463Q690.854 451.652 691.362 452.883Q691.871 454.115 692.284 455.382Q692.697 456.648 693.013 457.943Q693.328 459.237 693.544 460.552C694.846 468.13 694.42 476.282 694.435 483.963L694.461 516.797C694.466 555.437 694.732 594.131 694.152 632.765C693.994 643.265 691.258 652.935 683.536 660.384C678.915 664.842 673.028 667.682 667.003 669.731C668.056 676.632 667.103 683.22 662.923 689.009C660.046 692.993 656.292 695.645 651.852 697.636C642.236 699.676 631.736 698.76 621.939 698.686L622.001 735.505L622.058 751.453C636.185 757.456 648.064 770.443 653.806 784.587C656.343 790.836 657.844 796.972 658.307 803.693C658.801 810.854 658.521 818.176 658.521 825.357L658.506 862.444L658.505 923.7C658.504 930.084 658.884 936.576 658.763 942.928C658.737 944.266 658.718 945.881 658.159 947.124C657.865 947.777 658.017 947.689 657.399 947.874C656.671 948.092 656.124 948.041 655.382 947.983C652.546 946.906 565.721 947.018 556.498 948.043L556.195 863.486C545.184 863.372 534.159 863.494 523.148 863.505C522.425 883.199 523.104 903.114 523.133 922.838C523.145 930.786 523.904 939.779 522.766 947.633L521.89 948.165L521.099 947.749C520.362 946.291 520.159 945.047 520.032 943.421C519.373 934.935 520.035 925.953 520.026 917.406L519.968 860.178C536.954 859.82 554.008 860.09 571.003 860.047C579.415 860.026 588.817 860.82 597.074 859.173C601.326 858.326 605.119 856.47 608.458 853.711C614.449 848.761 617.786 842.153 618.533 834.438C619.714 822.244 618.957 809.412 618.932 797.126L618.603 726.205L618.595 677.572C618.616 668.943 619.265 659.741 618.333 651.183C617.875 646.973 616.198 643.305 613.436 640.103C609.57 635.621 604.77 632.905 598.865 632.453C586.646 631.517 573.859 632.367 561.571 632.331L482.29 632.302L430.098 632.29C421.296 632.282 411.788 631.594 403.064 632.624C399.203 633.079 395.266 635.333 392.399 637.892C388.039 641.781 385.838 646.63 385.527 652.402C384.921 663.657 385.593 675.179 385.577 686.465L385.497 763.129L385.446 809.768C385.431 818.799 384.694 828.569 386.108 837.492C386.896 842.467 389.524 847.172 392.927 850.846C396.609 854.822 401.586 858.153 406.9 859.354C415.549 861.31 426.4 860.114 435.299 860.104C455.843 860.082 476.545 859.58 497.071 860.335C497.514 877.42 497.146 894.582 497.135 911.674C497.127 923.286 497.666 935.045 497.227 946.637C496.193 947.735 495.479 947.502 494.01 947.629C483.978 946.48 473.009 947.258 462.853 947.212C443.781 947.126 424.632 946.746 405.572 947.418C404.85 947.41 404.441 947.342 403.761 947.158C403.417 946.614 403.323 946.547 403.154 945.822C402.56 943.278 403.174 929.732 403.175 925.982L403.106 861.927C398.656 859.911 394.506 857.443 391.038 853.966C387.541 850.458 384.484 845.539 383.348 840.693C380.824 829.93 382.093 815.898 382.088 804.755L382.083 746.517C382.712 740.738 382.256 734.697 382.205 728.886L382.083 698.963C370.84 698.756 342.377 700.764 333.462 696.892C327.927 692.475 324.481 687.255 323.764 680.037C323.408 676.45 323.949 673.047 324.763 669.564C315.576 663.303 306.249 653.809 304.145 642.386C302.383 632.818 303.15 622.34 303.172 612.649L303.309 563.856Q302.989 528.724 303.12 493.592C303.163 483.016 302.348 471.562 303.831 461.11C304.521 456.245 306.962 451.26 309.766 447.274Q310.3 446.521 310.871 445.795Q311.441 445.069 312.047 444.371Q312.652 443.674 313.291 443.007Q313.93 442.34 314.6 441.706Q315.271 441.071 315.972 440.47Q316.673 439.868 317.402 439.302Q318.132 438.736 318.888 438.206Q319.645 437.677 320.426 437.185Q321.208 436.693 322.012 436.239Q322.817 435.786 323.642 435.373Q324.468 434.959 325.313 434.587Q326.158 434.215 327.02 433.884Q327.883 433.553 328.76 433.265Q329.637 432.977 330.528 432.733Q331.418 432.488 332.32 432.287Q333.221 432.086 334.131 431.93C344.41 430.242 362.758 431.476 374.073 431.494L458.985 431.499Z"/>
	<path fill="#FEFEFE" d="M479.319 464.824C492.611 469.956 501.734 469.755 515.138 465.076C515.439 473.566 515.191 482.128 515.164 490.625C515.208 491.671 515.129 492.244 514.712 493.206C509.891 494.43 485.907 493.418 479.376 493.382C479.197 483.871 479.325 474.338 479.319 464.824Z"/>
	<path fill="#4666C8" d="M406.525 863.243L493.571 863.435C493.609 891.402 492.836 919.693 494.01 947.629C483.978 946.48 473.009 947.258 462.853 947.212C443.781 947.126 424.632 946.746 405.572 947.418L405.566 946.943L406.129 947.105C407.435 942.685 406.534 928.09 406.534 922.604L406.525 863.243Z"/>
	<path fill="#4666C8" d="M622.012 755.331C635.803 762.491 647.335 774.527 652.07 789.546C656.946 805.013 655.418 822.55 655.429 838.597L655.354 911.738C655.323 923.005 654.442 937.029 655.382 947.983C652.546 946.906 565.721 947.018 556.498 948.043L558.967 947.297C560.324 944.295 559.282 873.217 559.338 863.329Q569.287 863.23 579.236 863.251C591.727 863.274 603.365 864.026 612.919 854.45C616.739 850.621 619.621 845.57 620.852 840.288C623.25 830.004 622.06 817.891 622.057 807.367L622.012 755.331Z"/>
	<path fill="#FEFEFE" d="M340.859 434.712C356.233 434.145 371.799 434.653 387.197 434.66Q423.172 434.545 459.145 434.864C461.225 447.352 467.051 454.638 476.07 463.141L476.147 493.216C464.581 493.102 452.307 492.47 441.102 495.727C431.288 498.579 421.771 504.107 414.646 511.459C405.647 520.743 399.805 534.011 393.434 545.145Q380.058 568.081 367.217 591.321C353.061 616.117 340.344 641.896 325.587 666.312C323.94 665.144 322.295 663.967 320.762 662.65C312.317 655.389 307.351 646.468 306.595 635.28C305.813 623.71 306.37 611.81 306.372 600.204L306.37 534.592L306.374 487.788C306.391 479.983 305.794 471.425 306.875 463.715C307.767 457.348 310.275 451.378 314.549 446.541C321.523 438.651 330.583 435.362 340.859 434.712Z"/>
	<path fill="#FEFEFE" d="M537.222 434.705C558.049 434.386 578.907 434.818 599.739 434.75C612.353 434.708 659.005 432.975 668.664 436.223C676.788 438.955 683.813 444.94 687.479 452.713C689.162 456.281 690.387 460.379 690.707 464.31C691.387 472.661 691.017 481.236 691.023 489.617L691.107 531.449L691.009 597.663C690.977 609.798 691.3 622.062 690.802 634.183C690.66 637.626 690.558 641.219 689.37 644.487C685.855 654.165 679.605 660.335 670.399 664.712L665.822 666.198C654.433 642.291 641.029 619.094 628.604 595.702L603.282 548.461C596.604 536.026 591.395 521.522 581.242 511.472C561.955 492.38 543.358 493.428 518.397 493.487Q518.343 478.855 518.45 464.225C526.262 457.271 531.663 451.682 534.974 441.471C535.608 439.516 535.925 436.23 537.222 434.705Z"/>
	<path fill="#F47A3E" d="M453.575 496.689C453.891 496.661 454.207 496.624 454.523 496.605C467.568 495.812 481.029 496.5 494.129 496.517L524.127 496.567C532.78 496.585 541.823 496.029 550.299 497.998Q552.165 498.426 553.999 498.975Q555.833 499.523 557.628 500.19Q559.422 500.857 561.17 501.639Q562.917 502.421 564.61 503.314Q566.303 504.208 567.935 505.21Q569.566 506.212 571.129 507.318Q572.692 508.424 574.179 509.629Q575.667 510.834 577.073 512.133C581.123 515.823 583.968 519.766 586.795 524.436C591.86 532.805 596.221 541.705 600.801 550.35L625.249 596.499L647.048 636.975C651.942 646.031 657.062 655.026 661.294 664.416C662.75 667.648 663.883 670.732 663.953 674.331C664.066 680.123 661.8 685.949 657.621 689.993C648.934 698.399 633.103 695.967 621.949 695.908C621.736 684.124 623.429 657.607 620.95 647.835C619.831 643.424 617.375 639.344 614.212 636.096C611.215 633.018 607.252 630.403 602.976 629.607C593.802 627.902 581.133 629.111 571.589 629.145L508.375 629.265L413.135 629.015C413.009 624.203 413.967 603.254 411.875 600.793C411.245 600.824 411.373 600.702 410.926 601.227C408.566 603.998 409.772 623.57 409.713 628.469C402.171 629.384 395.681 630.203 389.882 635.826Q389.222 636.468 388.61 637.156Q387.998 637.844 387.437 638.574Q386.876 639.304 386.368 640.072Q385.861 640.84 385.41 641.642Q384.958 642.445 384.566 643.278Q384.173 644.111 383.841 644.969Q383.509 645.828 383.24 646.708Q382.97 647.589 382.764 648.486C381.223 654.957 382.042 662.799 382.085 669.451Q382.159 682.475 382.102 695.499Q369.9 695.543 357.699 695.761C352.239 695.856 346.308 696.436 340.918 695.596C338.255 695.182 335.603 694.191 333.436 692.572C329.648 689.743 327.448 684.669 326.912 680.075Q326.739 678.71 326.739 677.335Q326.738 675.959 326.91 674.594Q327.081 673.229 327.423 671.897Q327.764 670.564 328.269 669.285C330.794 663.063 334.694 657.017 337.907 651.104Q349.071 630.622 360.489 610.28Q377.168 579.52 394.714 549.245C401.083 538.089 407.019 526.072 414.986 515.986C424.162 504.371 439.25 498.384 453.575 496.689Z"/>
</svg>
